<?xml version="1.0" standalone="no"?><svg t="1768549977294" viewBox="0 0 1024 1024" version="1.1" xmlns="http://www.w3.org/2000/svg" p-id="12301" id="mx_n_1768549977294" xmlns:xlink="http://www.w3.org/1999/xlink" aria-hidden="true" focusable="false" fill="currentColor"><path d="m624.939 268.97 3.114-3.583a32 32 0 0 1 41.643-3.115l3.584 3.115 213.205 213.205a32 32 0 0 1 3.115 41.643l-3.115 3.626-213.162 213.462a32 32 0 0 1-48.384-41.643l3.072-3.584 158.336-158.592H160a32 32 0 0 1-31.701-27.605l-.299-4.352a32 32 0 0 1 27.648-31.702l4.352-.298 626.901-.043-158.848-158.89a32 32 0 0 1-3.114-41.643l3.114-3.584z" p-id="12302"/></svg>