<?xml version="1.0" standalone="no"?><svg t="1768379993211" viewBox="0 0 1024 1024" version="1.1" xmlns="http://www.w3.org/2000/svg" p-id="5389" id="mx_n_1768379993212" xmlns:xlink="http://www.w3.org/1999/xlink" aria-hidden="true" focusable="false" fill="currentColor"><path d="M512 955.733c-121.89 0-227.294-43.605-313.293-129.587C112.145 739.584 68.267 633.907 68.267 512c0-121.924 43.895-227.345 130.491-313.327 85.897-86.51 191.028-130.406 312.389-130.406 122.743 0 228.437 43.878 315 130.44 85.981 86 129.586 191.403 129.586 313.293 0 121.873-43.588 227.55-129.536 314.112C739.55 912.145 633.873 955.733 512 955.733m0-853.333c-112.777 0-209.766 40.516-289.11 120.405C142.917 302.234 102.4 399.514 102.4 512c0 112.52 40.533 210.09 120.44 290.014C302.2 881.374 399.496 921.6 512 921.6c112.538 0 210.125-40.243 290.048-119.637C881.357 722.125 921.6 624.538 921.6 512c0-112.503-40.226-209.8-119.586-289.16C722.09 142.932 624.52 102.4 512 102.4" p-id="5390"/><path d="M511.147 716.8a33.98 33.98 0 0 1-24.32-10.189l-170.48-170.479a34.133 34.133 0 1 1 48.265-48.264l112.401 112.4v-258.08a34.133 34.133 0 0 1 68.267 0V600.27l112.401-112.401a34.133 34.133 0 1 1 48.265 48.264L535.279 706.8l-.034.034a33.93 33.93 0 0 1-24.098 9.967" p-id="5391"/></svg>