<?xml version="1.0" standalone="no"?><svg t="1768200706061" viewBox="0 0 1024 1024" version="1.1" xmlns="http://www.w3.org/2000/svg" p-id="10667" xmlns:xlink="http://www.w3.org/1999/xlink" aria-hidden="true" focusable="false" fill="currentColor"><path d="M923.3 754.7c-22.4-50-54.4-94.8-95.2-133.2-40.6-38.3-87.8-68.3-140.4-89.3-11-4.4-22.1-8.3-33.4-11.8q19.05-13.05 35.7-29.7c47.1-47.1 73-109.6 73-176.2 0-66.5-25.9-129.1-73-176.2s-109.6-73-176.2-73-129.1 25.9-176.2 73-73 109.6-73 176.2c0 66.5 25.9 129.1 73 176.2 10.8 10.8 22.3 20.4 34.6 28.9q-18.15 5.55-36 12.6c-52.6 21-99.8 51-140.4 89.3-40.8 38.4-72.8 83.2-95.2 133.2-23.3 51.9-35.1 107-35.1 163.9 0 22.1 17.9 40 40 40s40-17.9 40-40c0-186.9 162.4-339 361.9-339h8.9c199.6 0 361.9 152.1 361.9 339 0 22.1 17.9 40 40 40s40-17.9 40-40c.2-56.8-11.6-112-34.9-163.9M513.9 145.4c93.3 0 169.1 75.9 169.1 169.1s-75.9 169.1-169.1 169.1-169.1-75.9-169.1-169.1 75.8-169.1 169.1-169.1" p-id="10668"/></svg>