<svg viewBox="0 0 24 24" xmlns="http://www.w3.org/2000/svg" aria-hidden="true" focusable="false" fill="currentColor"><path d="M18.75 3.75a.75.75 0 1 0 0 1.5 1.5 1.5 0 0 1 1.5 1.5v5.445a4.125 4.125 0 0 0-6.592 2.055h-3.315a4.125 4.125 0 0 0-6.593-2.055V6.75a1.5 1.5 0 0 1 1.5-1.5.75.75 0 0 0 0-1.5 3 3 0 0 0-3 3v8.625a4.125 4.125 0 0 0 8.232.375h3.036a4.125 4.125 0 0 0 8.232-.375V6.75a3 3 0 0 0-3-3M6.375 18a2.625 2.625 0 1 1 0-5.25 2.625 2.625 0 0 1 0 5.25m11.25 0a2.625 2.625 0 1 1 0-5.25 2.625 2.625 0 0 1 0 5.25"/></svg>